<mxfile host="app.diagrams.net" modified="2023-11-27T13:59:04.364Z" agent="Mozilla/5.0 (Windows NT 10.0; Win64; x64) AppleWebKit/537.36 (KHTML, like Gecko) Chrome/119.0.0.0 Safari/537.36 Edg/119.0.0.0" etag="fjqxZMwLQftCLlkAw-Ai" version="22.1.4" type="device">
  <diagram name="PÃ¡gina-1" id="Ud2dm5WDGSwk_C2j9O7M">
    <mxGraphModel dx="834" dy="490" grid="1" gridSize="10" guides="1" tooltips="1" connect="1" arrows="1" fold="1" page="1" pageScale="1" pageWidth="827" pageHeight="1169" math="0" shadow="0">
      <root>
        <mxCell id="0" />
        <mxCell id="1" parent="0" />
        <mxCell id="2WNKRaw83shofCpC5mnb-2" value="" style="whiteSpace=wrap;html=1;aspect=fixed;" vertex="1" parent="1">
          <mxGeometry x="250" y="50" width="250" height="250" as="geometry" />
        </mxCell>
        <mxCell id="2WNKRaw83shofCpC5mnb-3" value="" style="rounded=1;whiteSpace=wrap;html=1;" vertex="1" parent="1">
          <mxGeometry x="315" y="110" width="120" height="130" as="geometry" />
        </mxCell>
        <mxCell id="2WNKRaw83shofCpC5mnb-4" value="" style="rounded=0;whiteSpace=wrap;html=1;" vertex="1" parent="1">
          <mxGeometry x="250" y="260" width="250" height="40" as="geometry" />
        </mxCell>
        <mxCell id="2WNKRaw83shofCpC5mnb-5" value="" style="rounded=0;whiteSpace=wrap;html=1;" vertex="1" parent="1">
          <mxGeometry x="250" y="50" width="250" height="40" as="geometry" />
        </mxCell>
        <mxCell id="2WNKRaw83shofCpC5mnb-6" value="IMG" style="ellipse;whiteSpace=wrap;html=1;" vertex="1" parent="1">
          <mxGeometry x="337.5" y="120" width="75" height="50" as="geometry" />
        </mxCell>
        <mxCell id="2WNKRaw83shofCpC5mnb-7" value="&lt;h1&gt;&lt;span style=&quot;background-color: initial; font-weight: normal;&quot;&gt;&lt;font style=&quot;font-size: 5px;&quot;&gt;Lorem ipsum dolor sit amet, consectetur adipisicing elit, sed do eiusmod tempor incididunt ut labore et dolore magna aliqua.&lt;/font&gt;&lt;/span&gt;&lt;br&gt;&lt;/h1&gt;" style="text;html=1;strokeColor=none;fillColor=none;spacing=5;spacingTop=-20;whiteSpace=wrap;overflow=hidden;rounded=0;" vertex="1" parent="1">
          <mxGeometry x="325" y="170" width="100" height="40" as="geometry" />
        </mxCell>
        <mxCell id="2WNKRaw83shofCpC5mnb-8" value="BOTON" style="rounded=1;whiteSpace=wrap;html=1;" vertex="1" parent="1">
          <mxGeometry x="345" y="210" width="60" height="20" as="geometry" />
        </mxCell>
      </root>
    </mxGraphModel>
  </diagram>
</mxfile>
